<svg width="56" height="51" viewBox="0 0 56 51" fill="none" xmlns="http://www.w3.org/2000/svg">
<g clip-path="url(#clip0_726_2256)">
<mask id="mask0_726_2256" style="mask-type:luminance" maskUnits="userSpaceOnUse" x="0" y="-3" width="56" height="57">
<path d="M55.9062 -2.3418H0.916016V53.5649H55.9062V-2.3418Z" fill="white"/>
</mask>
<g mask="url(#mask0_726_2256)">
<path d="M28.3828 49.8172C41.6764 49.8172 52.453 39.0406 52.453 25.747C52.453 12.4533 41.6764 1.67676 28.3828 1.67676C15.0891 1.67676 4.3125 12.4533 4.3125 25.747C4.3125 39.0406 15.0891 49.8172 28.3828 49.8172Z" fill="white"/>
<path d="M28.3805 26.8929C33.4448 26.8929 37.5502 22.7875 37.5502 17.7233C37.5502 12.6591 33.4448 8.55371 28.3805 8.55371C23.3163 8.55371 19.2109 12.6591 19.2109 17.7233C19.2109 22.7875 23.3163 26.8929 28.3805 26.8929Z" fill="#FDF0EA"/>
<path fill-rule="evenodd" clip-rule="evenodd" d="M47.0925 42.1644C43.0006 45.3784 34.3548 50.1878 28.7533 50.1878C23.1518 50.1878 14.5061 45.3784 10.4141 42.1644C11.2428 34.7451 21.0325 31.8486 28.7533 31.8486C36.4741 31.8486 46.2638 34.7451 47.0925 42.1644Z" fill="#FDF0EA"/>
<path d="M4.78418 31.7158C5.41682 31.7158 5.92969 31.2029 5.92969 30.5703C5.92969 29.9377 5.41682 29.4248 4.78418 29.4248C4.15154 29.4248 3.63867 29.9377 3.63867 30.5703C3.63867 31.2029 4.15154 31.7158 4.78418 31.7158Z" fill="#EB662B"/>
<path fill-rule="evenodd" clip-rule="evenodd" d="M8.85745 41.5997C7.16451 39.4287 5.81999 36.9748 4.90648 34.3201C4.70015 33.7219 5.01879 33.0697 5.61711 32.8634C6.21428 32.6582 6.86761 32.9756 7.07393 33.5739C7.75134 35.5431 8.69012 37.3908 9.84778 39.0757C14.4922 33.9373 21.2273 30.7016 28.7555 30.7016C36.2837 30.7016 43.0188 33.9373 47.6632 39.0757C50.1963 35.3884 51.6795 30.9251 51.6795 26.1168C51.6795 22.2575 50.7235 18.6195 49.0363 15.4273C48.7406 14.8679 48.955 14.1734 49.5144 13.8777C50.0737 13.5831 50.7671 13.7963 51.0628 14.3556C52.9196 17.8676 53.9719 21.8701 53.9719 26.1168C53.9719 31.9533 51.9855 37.3289 48.6512 41.6031C48.6398 41.6192 48.6272 41.6352 48.6145 41.6502C43.9977 47.5439 36.8156 51.3332 28.7555 51.3332C20.6965 51.3332 13.5168 47.545 8.89872 41.6535C8.88497 41.6363 8.87006 41.618 8.85745 41.5997ZM46.2442 40.9314C42.0113 36.0716 35.7611 32.994 28.7555 32.994C21.7499 32.994 15.4997 36.0716 11.2667 40.9314C15.4733 45.8911 21.7499 49.0408 28.7555 49.0408C35.7611 49.0408 42.0376 45.8911 46.2442 40.9314ZM5.85665 27.2091C5.88645 27.8407 5.39821 28.3783 4.76551 28.4081C4.13395 28.4379 3.5964 27.9484 3.56774 27.3169C3.54826 26.9191 3.53906 26.5192 3.53906 26.1168C3.53906 12.1996 14.8383 0.900391 28.7555 0.900391C37.1445 0.900391 44.5834 5.00609 49.1682 11.3159C49.5396 11.8283 49.4261 12.5458 48.9149 12.9172C48.4026 13.2885 47.6849 13.1751 47.3136 12.6638C43.1449 6.92598 36.3835 3.19279 28.7555 3.19279C16.1037 3.19279 5.83146 13.465 5.83146 26.1168C5.83146 26.4824 5.8406 26.8469 5.85665 27.2091ZM28.7555 7.7776C34.4486 7.7776 39.0713 12.4003 39.0713 18.0934C39.0713 23.7866 34.4486 28.4092 28.7555 28.4092C23.0623 28.4092 18.4397 23.7866 18.4397 18.0934C18.4397 12.4003 23.0623 7.7776 28.7555 7.7776ZM28.7555 10.07C24.3277 10.07 20.7321 13.6656 20.7321 18.0934C20.7321 22.5212 24.3277 26.1168 28.7555 26.1168C33.1832 26.1168 36.7789 22.5212 36.7789 18.0934C36.7789 13.6656 33.1832 10.07 28.7555 10.07Z" fill="#EB662B"/>
</g>
</g>
<defs>
<clipPath id="clip0_726_2256">
<rect width="54.9901" height="56.8231" fill="white" transform="translate(0.916016 -3)"/>
</clipPath>
</defs>
</svg>
