<svg width="770" height="505" viewBox="0 0 770 505" fill="none" xmlns="http://www.w3.org/2000/svg">
<rect width="770" height="510" transform="translate(0 -5)" fill="#EDEDED"/>
<path d="M396.07 228.348C396.104 229.081 396.048 229.815 395.902 230.534C395.755 231.285 395.529 232.017 395.229 232.72L394.22 234.57L392.875 236.252L391.193 237.597L389.175 238.606L387.157 239.279H382.785L380.599 238.606L378.749 237.597L377.068 236.252L375.554 234.57L374.545 232.72L373.873 230.534C373.873 229.862 373.705 229.189 373.705 228.348C373.705 227.507 373.873 227.003 373.873 226.33C373.873 225.658 374.377 224.817 374.545 224.144L375.554 222.294L377.068 220.613C377.55 220.075 378.119 219.62 378.749 219.268L380.599 218.259L382.785 217.586H387.157L389.175 218.259L391.193 219.268L392.875 220.613L394.22 222.294L395.229 224.144C395.552 224.839 395.778 225.574 395.902 226.33C396.041 226.993 396.097 227.671 396.07 228.348Z" fill="#EB662B"/>
<path d="M427.516 231.206C424.827 231.368 422.171 231.877 419.612 232.719C417.011 233.45 414.479 234.406 412.045 235.578C409.588 236.631 407.272 237.987 405.15 239.614C402.985 241.11 400.959 242.798 399.097 244.659C397.221 246.613 395.479 248.692 393.884 250.881C392.378 253.082 391.03 255.385 389.848 257.775C388.749 260.24 387.794 262.767 386.989 265.343C386.323 267.944 385.817 270.583 385.475 273.246C385.297 270.559 384.789 267.905 383.962 265.343C383.232 262.742 382.275 260.21 381.103 257.775C380.05 255.318 378.694 253.002 377.068 250.881C375.53 248.694 373.845 246.615 372.023 244.659C370.067 242.837 367.988 241.151 365.801 239.614C363.679 237.987 361.363 236.631 358.906 235.578C356.496 234.352 353.958 233.393 351.339 232.719C348.781 231.877 346.124 231.368 343.435 231.206C343.435 232.719 343.267 234.233 343.267 235.746C343.202 238.851 343.484 241.953 344.108 244.995C344.421 246.528 344.814 248.044 345.285 249.535C345.638 251.041 346.145 252.506 346.799 253.908C347.344 255.339 347.962 256.742 348.648 258.112L351.003 262.148L353.861 265.847L356.888 269.21L360.251 272.405L363.951 275.096C365.296 276.105 366.641 276.778 367.987 277.618L372.191 279.636L376.395 281.15L380.935 282.327L385.475 283L390.016 282.327L394.556 281.15L398.928 279.636L403.132 277.618L407 275.096L410.7 272.405C411.901 271.428 413.025 270.36 414.063 269.21C415.212 268.173 416.28 267.048 417.258 265.847L419.948 262.148C420.789 260.802 421.63 259.457 422.303 258.112L424.321 253.908L425.834 249.535C426.25 248.041 426.587 246.525 426.843 244.995C427.149 243.495 427.374 241.979 427.516 240.455C427.742 238.896 427.799 237.317 427.684 235.746C427.712 234.231 427.656 232.715 427.516 231.206Z" fill="url(#paint0_linear_983_4923)"/>
<defs>
<linearGradient id="paint0_linear_983_4923" x1="356.987" y1="238.975" x2="392.447" y2="291.916" gradientUnits="userSpaceOnUse">
<stop stop-color="#EB662B"/>
<stop offset="1" stop-color="#F28555"/>
</linearGradient>
</defs>
</svg>
