<svg width="770" height="510" viewBox="0 0 770 510" fill="none" xmlns="http://www.w3.org/2000/svg">
<rect width="770" height="510" fill="#EDEDED"/>
<g clip-path="url(#clip0_983_4923)">
<g clip-path="url(#clip1_983_4923)">
<path d="M336.94 261.607L327.744 236.546H334.515L340.881 255.493L347.247 236.546H354.018L344.772 261.607H336.94Z" fill="#EB662B"/>
<path d="M361.583 232.654C360.404 232.654 359.427 232.3 358.653 231.593C357.912 230.886 357.541 229.993 357.541 228.915C357.541 227.837 357.912 226.961 358.653 226.288C359.427 225.58 360.404 225.227 361.583 225.227C362.762 225.227 363.722 225.58 364.463 226.288C365.238 226.961 365.625 227.837 365.625 228.915C365.625 229.993 365.238 230.886 364.463 231.593C363.722 232.3 362.762 232.654 361.583 232.654ZM358.349 261.606V236.545H364.817V261.606H358.349Z" fill="#EB662B"/>
<path d="M380.207 262.213C378.052 262.213 376.283 261.876 374.902 261.203C373.521 260.495 372.494 259.569 371.82 258.424C371.146 257.278 370.81 256.015 370.81 254.634C370.81 252.31 371.719 250.424 373.538 248.975C375.357 247.527 378.085 246.803 381.723 246.803H388.09V246.196C388.09 244.478 387.601 243.215 386.624 242.407C385.647 241.598 384.435 241.194 382.986 241.194C381.673 241.194 380.527 241.514 379.551 242.154C378.574 242.761 377.967 243.67 377.732 244.883H371.416C371.584 243.064 372.191 241.481 373.235 240.133C374.313 238.786 375.694 237.758 377.378 237.051C379.062 236.31 380.949 235.939 383.037 235.939C386.607 235.939 389.42 236.832 391.475 238.617C393.53 240.403 394.557 242.929 394.557 246.196V261.607H389.05L388.443 257.565C387.702 258.912 386.658 260.024 385.311 260.899C383.997 261.775 382.296 262.213 380.207 262.213ZM381.673 257.161C383.525 257.161 384.957 256.554 385.967 255.342C387.012 254.129 387.669 252.63 387.938 250.845H382.431C380.713 250.845 379.483 251.165 378.742 251.805C378.001 252.411 377.631 253.169 377.631 254.078C377.631 255.055 378.001 255.813 378.742 256.352C379.483 256.891 380.46 257.161 381.673 257.161Z" fill="#EB662B"/>
<path d="M411.55 261.606C408.922 261.606 406.817 260.966 405.234 259.686C403.651 258.406 402.859 256.133 402.859 252.865V241.952H398.564V236.545H402.859L403.617 229.825H409.326V236.545H416.097V241.952H409.326V252.916C409.326 254.128 409.579 254.971 410.084 255.442C410.623 255.88 411.533 256.099 412.813 256.099H415.946V261.606H411.55Z" fill="#EB662B"/>
<path d="M433.034 262.213C430.608 262.213 428.419 261.657 426.465 260.546C424.545 259.434 423.013 257.902 421.867 255.948C420.756 253.961 420.2 251.67 420.2 249.076C420.2 246.483 420.773 244.209 421.918 242.255C423.063 240.268 424.596 238.718 426.516 237.607C428.469 236.495 430.659 235.939 433.084 235.939C435.476 235.939 437.632 236.495 439.552 237.607C441.505 238.718 443.038 240.268 444.149 242.255C445.295 244.209 445.867 246.483 445.867 249.076C445.867 251.67 445.295 253.961 444.149 255.948C443.038 257.902 441.505 259.434 439.552 260.546C437.598 261.657 435.425 262.213 433.034 262.213ZM433.034 256.605C434.718 256.605 436.183 255.982 437.429 254.735C438.676 253.455 439.299 251.569 439.299 249.076C439.299 246.584 438.676 244.714 437.429 243.468C436.183 242.188 434.735 241.548 433.084 241.548C431.366 241.548 429.884 242.188 428.638 243.468C427.425 244.714 426.819 246.584 426.819 249.076C426.819 251.569 427.425 253.455 428.638 254.735C429.884 255.982 431.349 256.605 433.034 256.605Z" fill="#EB662B"/>
<path d="M461.047 262.213C457.915 262.213 455.489 261.236 453.771 259.283C452.087 257.329 451.245 254.466 451.245 250.693V236.546H457.662V250.087C457.662 252.243 458.1 253.893 458.976 255.039C459.851 256.184 461.232 256.756 463.119 256.756C464.904 256.756 466.369 256.116 467.515 254.836C468.694 253.556 469.283 251.771 469.283 249.481V236.546H475.75V261.607H470.041L469.536 257.363C468.761 258.845 467.632 260.024 466.15 260.9C464.702 261.775 463.001 262.213 461.047 262.213Z" fill="#EB662B"/>
<path d="M482.389 261.607V236.546H488.149L488.756 241.245C489.665 239.628 490.895 238.348 492.444 237.405C494.027 236.428 495.88 235.939 498.002 235.939V242.761H496.183C494.768 242.761 493.505 242.979 492.394 243.417C491.282 243.855 490.406 244.613 489.766 245.691C489.16 246.769 488.857 248.268 488.857 250.188V261.607H482.389Z" fill="#EB662B"/>
<path d="M512.781 262.213C510.558 262.213 508.604 261.859 506.92 261.152C505.236 260.411 503.888 259.401 502.878 258.121C501.867 256.841 501.261 255.358 501.059 253.674H507.577C507.779 254.651 508.318 255.493 509.194 256.201C510.103 256.874 511.265 257.211 512.68 257.211C514.095 257.211 515.122 256.925 515.762 256.352C516.436 255.779 516.773 255.123 516.773 254.382C516.773 253.304 516.301 252.579 515.358 252.209C514.415 251.805 513.101 251.417 511.417 251.047C510.339 250.811 509.244 250.525 508.133 250.188C507.021 249.851 505.994 249.43 505.05 248.925C504.141 248.386 503.4 247.712 502.827 246.904C502.255 246.062 501.968 245.034 501.968 243.822C501.968 241.598 502.844 239.729 504.596 238.213C506.381 236.697 508.874 235.939 512.074 235.939C515.038 235.939 517.396 236.63 519.147 238.011C520.933 239.392 521.994 241.295 522.33 243.721H516.217C515.846 241.868 514.448 240.942 512.023 240.942C510.81 240.942 509.867 241.177 509.194 241.649C508.554 242.121 508.234 242.71 508.234 243.417C508.234 244.158 508.722 244.748 509.699 245.186C510.676 245.624 511.973 246.028 513.589 246.398C515.341 246.803 516.941 247.257 518.389 247.763C519.871 248.234 521.05 248.958 521.926 249.935C522.802 250.878 523.24 252.243 523.24 254.028C523.274 255.577 522.869 256.975 522.027 258.222C521.185 259.468 519.973 260.445 518.389 261.152C516.806 261.859 514.937 262.213 512.781 262.213Z" fill="#EB662B"/>
<path d="M310.768 227.678C308.622 227.807 306.502 228.213 304.46 228.886C302.385 229.468 300.364 230.232 298.422 231.167C296.46 232.007 294.612 233.089 292.919 234.388C291.191 235.582 289.574 236.929 288.088 238.414C286.591 239.973 285.201 241.632 283.928 243.379C282.727 245.135 281.65 246.974 280.707 248.881C279.83 250.848 279.068 252.865 278.426 254.92C277.894 256.996 277.491 259.102 277.218 261.228C277.076 259.084 276.67 256.965 276.01 254.92C275.428 252.845 274.664 250.824 273.729 248.881C272.888 246.92 271.806 245.072 270.508 243.379C269.281 241.634 267.936 239.975 266.482 238.414C264.921 236.96 263.262 235.614 261.516 234.388C259.824 233.089 257.975 232.007 256.014 231.167C254.091 230.188 252.066 229.423 249.975 228.886C247.934 228.213 245.814 227.807 243.668 227.678C243.668 228.886 243.534 230.093 243.534 231.301C243.482 233.779 243.707 236.254 244.205 238.682C244.455 239.905 244.768 241.115 245.144 242.305C245.426 243.507 245.831 244.676 246.352 245.795C246.787 246.937 247.28 248.057 247.828 249.15L249.707 252.37L251.988 255.323L254.404 258.007L257.088 260.557L260.04 262.704C261.114 263.509 262.187 264.046 263.261 264.717L266.616 266.327L269.971 267.535L273.594 268.475L277.218 269.011L280.841 268.475L284.465 267.535L287.954 266.327L291.309 264.717L294.395 262.704L297.348 260.557C298.306 259.777 299.204 258.924 300.032 258.007C300.949 257.179 301.802 256.282 302.582 255.323L304.729 252.37C305.4 251.297 306.071 250.223 306.608 249.15L308.218 245.795L309.426 242.305C309.758 241.113 310.027 239.903 310.231 238.682C310.476 237.485 310.655 236.275 310.768 235.059C310.949 233.815 310.994 232.555 310.902 231.301C310.924 230.092 310.879 228.882 310.768 227.678Z" fill="url(#paint0_linear_983_4923)"/>
<path d="M285.673 225.396C285.7 225.981 285.655 226.567 285.538 227.141C285.421 227.74 285.241 228.324 285.002 228.886L284.196 230.362L283.123 231.704L281.781 232.777L280.17 233.583L278.56 234.119H275.071L273.326 233.583L271.85 232.777L270.508 231.704L269.3 230.362L268.495 228.886L267.958 227.141C267.958 226.604 267.824 226.067 267.824 225.396C267.824 224.725 267.958 224.323 267.958 223.786C267.958 223.249 268.361 222.578 268.495 222.041L269.3 220.565L270.508 219.223C270.893 218.794 271.347 218.431 271.85 218.15L273.326 217.344L275.071 216.808H278.56L280.17 217.344L281.781 218.15L283.123 219.223L284.196 220.565L285.002 222.041C285.259 222.596 285.44 223.183 285.538 223.786C285.649 224.315 285.694 224.856 285.673 225.396Z" fill="#EB662B"/>
</g>
</g>
<defs>
<linearGradient id="paint0_linear_983_4923" x1="254.482" y1="233.878" x2="282.781" y2="276.127" gradientUnits="userSpaceOnUse">
<stop stop-color="#EB662B"/>
<stop offset="1" stop-color="#F28555"/>
</linearGradient>
<clipPath id="clip0_983_4923">
<rect width="288" height="53.8947" fill="white" transform="translate(241 216)"/>
</clipPath>
<clipPath id="clip1_983_4923">
<rect width="281.263" height="53.8947" fill="white" transform="translate(243.526 216.053)"/>
</clipPath>
</defs>
</svg>
