<svg width="126" height="24" viewBox="0 0 126 24" fill="none" xmlns="http://www.w3.org/2000/svg">
<g id="logo-1.svg">
<path id="Vector" d="M41.5983 20.286L37.5033 9.12598H40.5183L43.3533 17.5635L46.1883 9.12598H49.2033L45.0858 20.286H41.5983Z" fill="#F5F5F5"/>
<path id="Vector_2" d="M52.5723 7.39344C52.0473 7.39344 51.6123 7.23594 51.2673 6.92094C50.9373 6.60594 50.7723 6.20844 50.7723 5.72844C50.7723 5.24844 50.9373 4.85844 51.2673 4.55844C51.6123 4.24344 52.0473 4.08594 52.5723 4.08594C53.0973 4.08594 53.5248 4.24344 53.8548 4.55844C54.1998 4.85844 54.3723 5.24844 54.3723 5.72844C54.3723 6.20844 54.1998 6.60594 53.8548 6.92094C53.5248 7.23594 53.0973 7.39344 52.5723 7.39344ZM51.1323 20.286V9.12597H54.0123V20.286H51.1323Z" fill="#F5F5F5"/>
<path id="Vector_3" d="M60.8659 20.5555C59.9059 20.5555 59.1184 20.4055 58.5034 20.1055C57.8884 19.7905 57.4309 19.378 57.1309 18.868C56.8309 18.358 56.6809 17.7955 56.6809 17.1805C56.6809 16.1455 57.0859 15.3055 57.8959 14.6605C58.7059 14.0155 59.9209 13.693 61.5409 13.693H64.3759V13.423C64.3759 12.658 64.1584 12.0955 63.7234 11.7355C63.2884 11.3755 62.7484 11.1955 62.1034 11.1955C61.5184 11.1955 61.0084 11.338 60.5734 11.623C60.1384 11.893 59.8684 12.298 59.7634 12.838H56.9509C57.0259 12.028 57.2959 11.323 57.7609 10.723C58.2409 10.123 58.8559 9.66547 59.6059 9.35047C60.3559 9.02047 61.1959 8.85547 62.1259 8.85547C63.7159 8.85547 64.9684 9.25297 65.8834 10.048C66.7984 10.843 67.2559 11.968 67.2559 13.423V20.2855H64.8034L64.5334 18.4855C64.2034 19.0855 63.7384 19.5805 63.1384 19.9705C62.5534 20.3605 61.7959 20.5555 60.8659 20.5555ZM61.5184 18.3055C62.3434 18.3055 62.9809 18.0355 63.4309 17.4955C63.8959 16.9555 64.1884 16.288 64.3084 15.493H61.8559C61.0909 15.493 60.5434 15.6355 60.2134 15.9205C59.8834 16.1905 59.7184 16.528 59.7184 16.933C59.7184 17.368 59.8834 17.7055 60.2134 17.9455C60.5434 18.1855 60.9784 18.3055 61.5184 18.3055Z" fill="#F5F5F5"/>
<path id="Vector_4" d="M74.8229 20.2858C73.6528 20.2858 72.7153 20.0008 72.0104 19.4308C71.3054 18.8608 70.9529 17.8483 70.9529 16.3933V11.5333H69.0403V9.12584H70.9529L71.2903 6.1333H73.8329V9.12584H76.848V11.5333H73.8329V16.4158C73.8329 16.9558 73.9453 17.3308 74.1703 17.5408C74.4103 17.7358 74.8153 17.8333 75.3855 17.8333H76.7805V20.2858H74.8229Z" fill="#F5F5F5"/>
<path id="Vector_5" d="M84.39 20.5555C83.31 20.5555 82.335 20.308 81.465 19.813C80.61 19.318 79.9275 18.6355 79.4175 17.7655C78.9225 16.8805 78.675 15.8605 78.675 14.7055C78.675 13.5505 78.93 12.538 79.44 11.668C79.95 10.783 80.6325 10.093 81.4875 9.59797C82.3575 9.10297 83.3325 8.85547 84.4125 8.85547C85.4775 8.85547 86.4375 9.10297 87.2925 9.59797C88.1625 10.093 88.845 10.783 89.34 11.668C89.85 12.538 90.105 13.5505 90.105 14.7055C90.105 15.8605 89.85 16.8805 89.34 17.7655C88.845 18.6355 88.1625 19.318 87.2925 19.813C86.4225 20.308 85.455 20.5555 84.39 20.5555ZM84.39 18.058C85.14 18.058 85.7925 17.7805 86.3475 17.2255C86.9025 16.6555 87.18 15.8155 87.18 14.7055C87.18 13.5955 86.9025 12.763 86.3475 12.208C85.7925 11.638 85.1475 11.353 84.4125 11.353C83.6475 11.353 82.9875 11.638 82.4325 12.208C81.8925 12.763 81.6225 13.5955 81.6225 14.7055C81.6225 15.8155 81.8925 16.6555 82.4325 17.2255C82.9875 17.7805 83.64 18.058 84.39 18.058Z" fill="#F5F5F5"/>
<path id="Vector_6" d="M96.8648 20.556C95.4698 20.556 94.3898 20.121 93.6248 19.251C92.8748 18.381 92.4998 17.106 92.4998 15.426V9.12598H95.3573V15.156C95.3573 16.116 95.5523 16.851 95.9423 17.361C96.3323 17.871 96.9473 18.126 97.7873 18.126C98.5823 18.126 99.2348 17.841 99.7448 17.271C100.27 16.701 100.532 15.906 100.532 14.886V9.12598H103.412V20.286H100.87L100.645 18.396C100.3 19.056 99.7973 19.581 99.1373 19.971C98.4923 20.361 97.7348 20.556 96.8648 20.556Z" fill="#F5F5F5"/>
<path id="Vector_7" d="M106.369 20.2855V9.12547H108.934L109.204 11.218C109.609 10.498 110.156 9.92797 110.846 9.50797C111.551 9.07297 112.376 8.85547 113.321 8.85547V11.893H112.511C111.881 11.893 111.319 11.9905 110.824 12.1855C110.329 12.3805 109.939 12.718 109.654 13.198C109.384 13.678 109.249 14.3455 109.249 15.2005V20.2855H106.369Z" fill="#F5F5F5"/>
<path id="Vector_8" d="M119.903 20.5555C118.913 20.5555 118.043 20.398 117.293 20.083C116.543 19.753 115.943 19.303 115.493 18.733C115.043 18.163 114.773 17.503 114.683 16.753H117.585C117.675 17.188 117.915 17.563 118.305 17.878C118.71 18.178 119.228 18.328 119.858 18.328C120.488 18.328 120.945 18.2005 121.23 17.9455C121.53 17.6905 121.68 17.398 121.68 17.068C121.68 16.588 121.47 16.2655 121.05 16.1005C120.63 15.9205 120.045 15.748 119.295 15.583C118.815 15.478 118.328 15.3505 117.833 15.2005C117.338 15.0505 116.88 14.863 116.46 14.638C116.055 14.398 115.725 14.098 115.47 13.738C115.215 13.363 115.088 12.9055 115.088 12.3655C115.088 11.3755 115.478 10.543 116.258 9.86797C117.053 9.19297 118.163 8.85547 119.588 8.85547C120.908 8.85547 121.958 9.16297 122.738 9.77797C123.533 10.393 124.005 11.2405 124.155 12.3205H121.433C121.268 11.4955 120.645 11.083 119.565 11.083C119.025 11.083 118.605 11.188 118.305 11.398C118.02 11.608 117.878 11.8705 117.878 12.1855C117.878 12.5155 118.095 12.778 118.53 12.973C118.965 13.168 119.543 13.348 120.263 13.513C121.043 13.693 121.755 13.8955 122.4 14.1205C123.06 14.3305 123.585 14.653 123.975 15.088C124.365 15.508 124.56 16.1155 124.56 16.9105C124.575 17.6005 124.395 18.223 124.02 18.778C123.645 19.333 123.105 19.768 122.4 20.083C121.695 20.398 120.863 20.5555 119.903 20.5555Z" fill="#F5F5F5"/>
<path id="Vector_9" d="M29.9434 5.17627C28.9879 5.23386 28.0439 5.41464 27.1347 5.71412C26.2103 5.97356 25.3105 6.3135 24.4455 6.73005C23.5722 7.10431 22.7491 7.58611 21.9952 8.16428C21.2256 8.69596 20.5056 9.29596 19.8439 9.95716C19.1772 10.6516 18.5582 11.3903 17.9913 12.1683C17.4563 12.9504 16.9771 13.7691 16.557 14.6185C16.1664 15.4944 15.8272 16.3924 15.5411 17.3078C15.3044 18.2321 15.1247 19.1701 15.0032 20.1165C14.9399 19.1617 14.7593 18.2183 14.4654 17.3078C14.206 16.3834 13.866 15.4835 13.4495 14.6185C13.0752 13.7453 12.5934 12.9221 12.0152 12.1683C11.4689 11.3911 10.8699 10.6523 10.2223 9.95716C9.52725 9.30961 8.78842 8.71058 8.0112 8.16428C7.25735 7.58611 6.43425 7.10431 5.56101 6.73005C4.70443 6.29413 3.80262 5.95345 2.87177 5.71412C1.96258 5.41464 1.01851 5.23386 0.0630027 5.17627C0.0630027 5.71412 0.00324173 6.25196 0.00324173 6.78981C-0.0198386 7.89316 0.0803843 8.99558 0.302047 10.0766C0.413387 10.6214 0.553018 11.16 0.720373 11.6902C0.845865 12.2252 1.0261 12.7459 1.25822 13.244C1.45219 13.7527 1.67159 14.2514 1.91559 14.738L2.75225 16.1723L3.76818 17.487L4.84388 18.6822L6.0391 19.8177L7.35384 20.7739C7.83195 21.1325 8.31 21.3715 8.78812 21.6703L10.2821 22.3874L11.7761 22.9253L13.3897 23.3436L15.0032 23.5826L16.6168 23.3436L18.2303 22.9253L19.7841 22.3874L21.2782 21.6703L22.6526 20.7739L23.9674 19.8177C24.3943 19.4704 24.7938 19.0907 25.1626 18.6822C25.5711 18.3134 25.9507 17.9139 26.2981 17.487L27.2543 16.1723C27.5531 15.6942 27.8518 15.2161 28.0909 14.738L28.808 13.244L29.3458 11.6902C29.4938 11.1591 29.6135 10.6205 29.7044 10.0766C29.8133 9.54353 29.8931 9.00488 29.9434 8.46308C30.0241 7.90921 30.0441 7.3481 30.0032 6.78981C30.0131 6.25127 29.9932 5.7126 29.9434 5.17627Z" fill="url(#paint0_linear_758_23)"/>
<path id="Vector_10" d="M18.7683 4.16064C18.7804 4.42107 18.7603 4.68201 18.7085 4.93753C18.6562 5.20414 18.5761 5.46453 18.4695 5.71442L18.1109 6.37179L17.6328 6.9694L17.0352 7.44749L16.318 7.80605L15.601 8.04507H14.0471L13.2703 7.80605L12.6129 7.44749L12.0153 6.9694L11.4775 6.37179L11.1189 5.71442L10.8798 4.93753C10.8798 4.69849 10.8201 4.45944 10.8201 4.16064C10.8201 3.86183 10.8798 3.68255 10.8798 3.44351C10.8798 3.20447 11.0591 2.90566 11.1189 2.66661L11.4775 2.00924L12.0153 1.41164C12.1867 1.22043 12.3887 1.05889 12.6129 0.933549L13.2703 0.574981L14.0471 0.335938H15.601L16.318 0.574981L17.0352 0.933549L17.6328 1.41164L18.1109 2.00924L18.4695 2.66661C18.5842 2.91348 18.6646 3.17486 18.7085 3.44351C18.7579 3.67919 18.7779 3.92005 18.7683 4.16064Z" fill="#EB662B"/>
</g>
<defs>
<linearGradient id="paint0_linear_758_23" x1="4.87887" y1="7.93711" x2="17.4807" y2="26.7515" gradientUnits="userSpaceOnUse">
<stop stop-color="white"/>
<stop offset="1" stop-color="#F28555"/>
</linearGradient>
</defs>
</svg>
