<svg width="1800" height="37" viewBox="0 0 1800 37" fill="none" xmlns="http://www.w3.org/2000/svg">
<path d="M-40.3779 14.4877C-40.3779 14.4877 8.0506 21.0894 52.4989 21.55C97.61 22.0106 136.088 21.55 191.15 19.2471C266.115 16.1765 410.738 3.74053 487.693 10.4959C564.649 17.2512 567.965 17.5582 607.107 21.8571C650.891 26.77 739.788 36.596 849.912 36.1354C967.335 35.6748 1180.29 10.6494 1267.86 11.8776C1277.14 12.0312 1311.65 13.1058 1337.52 14.9482C1362.73 16.7907 1399.87 20.7823 1450.3 22.1642C1471.52 22.7782 1505.36 23.853 1544.5 23.5459C1554.45 23.3924 1586.3 22.9318 1624.11 21.0894C1661.93 19.2471 1697.09 16.33 1728.92 15.4088C1797.26 13.72 1840.38 16.1765 1840.38 16.1765V-0.404785H-40.3779V14.4877ZM110.215 16.9441C114.86 15.4088 123.483 16.33 138.742 16.33C154 16.33 179.21 14.4877 177.219 14.6412C175.229 14.7948 156.653 16.9441 137.415 17.5582C117.513 18.3259 106.235 18.4795 110.215 16.9441ZM232.282 12.7989C232.282 12.7989 248.203 12.4918 269.433 11.417C290.661 10.1888 337.764 7.1182 369.607 6.04348C424.006 4.35466 474.425 6.04348 469.781 6.19701C464.474 6.35055 406.095 5.27583 353.022 7.88585C331.13 8.96056 291.325 11.2635 270.76 12.0312C248.867 12.9523 232.282 12.7989 232.282 12.7989ZM611.75 12.6453C600.472 11.5706 699.983 19.8612 734.48 22.0106C748.412 22.9318 775.611 24.4672 800.82 25.0812C826.693 25.6954 859.864 25.6954 859.2 25.8489C859.2 26.156 820.723 27.0771 784.899 25.8489C749.076 24.6207 750.402 24.1601 734.48 23.3924C709.27 22.1642 623.028 13.72 611.75 12.6453ZM519.537 10.1888C518.21 10.1888 524.844 9.57468 551.38 11.8776C577.916 14.1806 595.828 17.2512 597.156 17.5582C598.482 17.7118 573.937 14.7948 553.37 12.9523C533.468 11.1099 520.2 10.1888 519.537 10.1888ZM-37.0609 8.80703C-36.3976 8.96056 -24.4563 10.4959 -5.21761 12.6453C14.0213 14.7948 40.5576 16.9441 39.2307 16.7907C37.904 16.7907 16.0116 15.8694 -9.8612 12.9523C-35.7341 10.0353 -37.7243 8.6535 -37.0609 8.80703ZM1632.73 17.4047C1632.06 17.0976 1645.33 17.0976 1662.58 15.5623C1679.83 14.0271 1698.41 13.1058 1714.34 12.4918C1740.87 11.2635 1791.95 12.6453 1789.29 12.7989C1787.31 12.9523 1734.9 12.3383 1706.37 13.8735C1691.78 14.6412 1690.45 14.6412 1668.56 16.33C1646.66 18.0189 1633.39 17.8653 1632.73 17.4047ZM1356.09 13.72C1353.44 13.5665 1332.88 11.2635 1300.36 9.72822C1267.86 8.03938 1241.33 8.96056 1241.33 8.49997C1241.33 8.03938 1247.96 7.1182 1282.45 8.03938C1316.95 8.96057 1358.75 13.8735 1356.09 13.72ZM1365.38 9.88174C1364.06 10.0353 1342.82 7.88585 1327.57 7.27173C1312.3 6.81113 1314.96 6.50408 1314.96 6.35055C1314.96 6.19701 1322.26 6.04348 1332.88 6.65761C1344.15 7.42526 1366.71 9.72822 1365.38 9.88174ZM1219.43 6.35055C1218.77 6.65761 1196.21 7.57878 1182.28 9.11409C1168.35 10.6494 1170.34 10.0353 1169.68 9.88174C1169.01 9.72822 1174.98 8.6535 1185.59 7.88585C1196.21 6.96466 1220.09 6.04348 1219.43 6.35055ZM1406.51 16.6371C1407.18 17.0976 1404.52 17.4047 1393.91 16.33C1383.29 15.2553 1376.66 14.3341 1379.31 14.4877C1381.96 14.6412 1385.28 15.1017 1395.89 15.7159C1407.18 16.33 1405.85 16.1765 1406.51 16.6371ZM1611.5 18.633C1612.83 18.633 1597.57 19.8612 1589.61 20.0147C1581.65 20.1683 1576.34 20.1683 1576.34 19.7077C1576.34 19.2471 1577.01 18.94 1586.96 19.0935C1597.57 19.2471 1610.17 18.633 1611.5 18.633ZM830.674 31.9901C831.338 32.1437 846.596 31.5295 880.43 31.5295C913.6 31.5295 970.653 27.8448 994.535 26.156C1018.41 24.4671 928.195 32.1436 885.073 32.4507C841.952 32.7577 830.011 31.8366 830.674 31.9901Z" fill="white"/>
</svg>
