<svg width="94" height="18" viewBox="0 0 94 18" fill="none" xmlns="http://www.w3.org/2000/svg">
<g clip-path="url(#clip0_730_5876)">
<g clip-path="url(#clip1_730_5876)">
<path d="M31.3139 15.0732L28.3125 6.89355H30.5223L32.6002 13.0778L34.6781 6.89355H36.8879L33.87 15.0732H31.3139Z" fill="#EB662B"/>
<path d="M39.3564 5.62343C38.9716 5.62343 38.6528 5.50799 38.3999 5.27711C38.158 5.04624 38.0371 4.75489 38.0371 4.40308C38.0371 4.05127 38.158 3.76542 38.3999 3.54553C38.6528 3.31466 38.9716 3.19922 39.3564 3.19922C39.7412 3.19922 40.0545 3.31466 40.2964 3.54553C40.5493 3.76542 40.6757 4.05127 40.6757 4.40308C40.6757 4.75489 40.5493 5.04624 40.2964 5.27711C40.0545 5.50799 39.7412 5.62343 39.3564 5.62343ZM38.301 15.0729V6.89328H40.4118V15.0729H38.301Z" fill="#EB662B"/>
<path d="M45.4346 15.2717C44.7309 15.2717 44.1537 15.1618 43.703 14.9419C43.2522 14.711 42.9169 14.4087 42.697 14.0349C42.4771 13.6611 42.3672 13.2488 42.3672 12.798C42.3672 12.0394 42.664 11.4238 43.2577 10.951C43.8514 10.4783 44.7419 10.2419 45.9293 10.2419H48.0072V10.044C48.0072 9.48331 47.8478 9.07103 47.5289 8.80717C47.2101 8.54331 46.8143 8.41138 46.3416 8.41138C45.9128 8.41138 45.539 8.51582 45.2202 8.72471C44.9013 8.9226 44.7034 9.21945 44.6265 9.61524H42.5651C42.6201 9.02155 42.8179 8.50483 43.1588 8.06506C43.5106 7.62529 43.9613 7.28997 44.511 7.0591C45.0608 6.81722 45.6764 6.69629 46.3581 6.69629C47.5234 6.69629 48.4415 6.98763 49.1121 7.57032C49.7827 8.15301 50.1181 8.97758 50.1181 10.044V15.0738H48.3205L48.1226 13.7545C47.8808 14.1943 47.5399 14.5571 47.1002 14.843C46.6714 15.1288 46.1162 15.2717 45.4346 15.2717ZM45.9128 13.6226C46.5175 13.6226 46.9847 13.4247 47.3146 13.0289C47.6554 12.6331 47.8698 12.1439 47.9577 11.5612H46.1602C45.5995 11.5612 45.1982 11.6656 44.9563 11.8745C44.7144 12.0724 44.5935 12.3198 44.5935 12.6166C44.5935 12.9355 44.7144 13.1828 44.9563 13.3587C45.1982 13.5347 45.517 13.6226 45.9128 13.6226Z" fill="#EB662B"/>
<path d="M55.666 15.0732C54.8084 15.0732 54.1213 14.8643 53.6046 14.4465C53.0879 14.0288 52.8295 13.2867 52.8295 12.2202V8.65812H51.4277V6.89356H52.8295L53.0769 4.7002H54.9404V6.89356H57.1503V8.65812H54.9404V12.2367C54.9404 12.6325 55.0228 12.9074 55.1877 13.0613C55.3636 13.2042 55.6605 13.2757 56.0784 13.2757H57.1008V15.0732H55.666Z" fill="#EB662B"/>
<path d="M62.6771 15.2717C61.8855 15.2717 61.1709 15.0903 60.5332 14.7275C59.9065 14.3647 59.4063 13.8645 59.0325 13.2268C58.6697 12.5782 58.4883 11.8306 58.4883 10.984C58.4883 10.1375 58.6752 9.39535 59.049 8.75769C59.4228 8.10904 59.923 7.60331 60.5497 7.2405C61.1873 6.87769 61.902 6.69629 62.6935 6.69629C63.4741 6.69629 64.1778 6.87769 64.8044 7.2405C65.4421 7.60331 65.9423 8.10904 66.3051 8.75769C66.6789 9.39535 66.8658 10.1375 66.8658 10.984C66.8658 11.8306 66.6789 12.5782 66.3051 13.2268C65.9423 13.8645 65.4421 14.3647 64.8044 14.7275C64.1668 15.0903 63.4576 15.2717 62.6771 15.2717ZM62.6771 13.4412C63.2268 13.4412 63.705 13.2378 64.1118 12.831C64.5186 12.4132 64.722 11.7976 64.722 10.984C64.722 10.1704 64.5186 9.56027 64.1118 9.15348C63.705 8.7357 63.2323 8.52682 62.6935 8.52682C62.1328 8.52682 61.6491 8.7357 61.2423 9.15348C60.8465 9.56027 60.6486 10.1704 60.6486 10.984C60.6486 11.7976 60.8465 12.4132 61.2423 12.831C61.6491 13.2378 62.1273 13.4412 62.6771 13.4412Z" fill="#EB662B"/>
<path d="M71.8204 15.2711C70.7979 15.2711 70.0064 14.9523 69.4457 14.3146C68.8959 13.6769 68.6211 12.7424 68.6211 11.5111V6.89355H70.7155V11.3132C70.7155 12.0168 70.8584 12.5555 71.1442 12.9293C71.4301 13.3031 71.8809 13.49 72.4965 13.49C73.0792 13.49 73.5575 13.2812 73.9313 12.8634C74.3161 12.4456 74.5085 11.8629 74.5085 11.1153V6.89355H76.6193V15.0732H74.7558L74.5909 13.6879C74.338 14.1717 73.9697 14.5565 73.486 14.8423C73.0133 15.1282 72.4581 15.2711 71.8204 15.2711Z" fill="#EB662B"/>
<path d="M78.7871 15.0738V6.89418H80.6671L80.865 8.42787C81.1618 7.90015 81.5631 7.48237 82.0689 7.17453C82.5856 6.8557 83.1903 6.69629 83.8829 6.69629V8.9226H83.2892C82.8275 8.9226 82.4152 8.99407 82.0524 9.13699C81.6896 9.27992 81.4037 9.52728 81.1948 9.8791C80.9969 10.2309 80.898 10.7201 80.898 11.3468V15.0738H78.7871Z" fill="#EB662B"/>
<path d="M88.7068 15.2717C87.9812 15.2717 87.3435 15.1563 86.7938 14.9254C86.2441 14.6835 85.8044 14.3537 85.4745 13.9359C85.1447 13.5182 84.9468 13.0344 84.8809 12.4847H87.0082C87.0742 12.8035 87.2501 13.0784 87.5359 13.3093C87.8328 13.5292 88.2121 13.6391 88.6738 13.6391C89.1356 13.6391 89.4709 13.5456 89.6798 13.3587C89.8997 13.1718 90.0096 12.9575 90.0096 12.7156C90.0096 12.3638 89.8557 12.1274 89.5479 12.0065C89.24 11.8745 88.8113 11.7481 88.2616 11.6272C87.9097 11.5502 87.5524 11.4568 87.1896 11.3468C86.8268 11.2369 86.4915 11.0994 86.1837 10.9345C85.8868 10.7586 85.645 10.5387 85.4581 10.2749C85.2712 10 85.1777 9.66471 85.1777 9.26892C85.1777 8.54331 85.4635 7.93313 86.0352 7.43839C86.6179 6.94366 87.4315 6.69629 88.4759 6.69629C89.4434 6.69629 90.213 6.92167 90.7847 7.37243C91.3674 7.82319 91.7137 8.44436 91.8237 9.23594H89.8282C89.7073 8.63126 89.251 8.32892 88.4595 8.32892C88.0637 8.32892 87.7558 8.40588 87.5359 8.5598C87.3271 8.71372 87.2226 8.90611 87.2226 9.13699C87.2226 9.37886 87.382 9.57126 87.7009 9.71418C88.0197 9.85711 88.443 9.98904 88.9707 10.11C89.5424 10.2419 90.0646 10.3903 90.5373 10.5552C91.0211 10.7092 91.4059 10.9455 91.6917 11.2644C91.9776 11.5722 92.1205 12.0175 92.1205 12.6001C92.1315 13.1059 91.9996 13.5621 91.7247 13.9689C91.4499 14.3757 91.0541 14.6945 90.5373 14.9254C90.0206 15.1563 89.4104 15.2717 88.7068 15.2717Z" fill="#EB662B"/>
<path d="M22.7711 3.99902C22.0707 4.04124 21.3788 4.17374 20.7124 4.39324C20.0349 4.58339 19.3754 4.83255 18.7414 5.13786C18.1013 5.41217 17.4981 5.7653 16.9455 6.18907C16.3814 6.57876 15.8537 7.01852 15.3687 7.50315C14.88 8.01212 14.4263 8.55353 14.0108 9.12379C13.6187 9.69703 13.2675 10.2971 12.9596 10.9196C12.6733 11.5616 12.4246 12.2198 12.215 12.8907C12.0414 13.5682 11.9098 14.2557 11.8207 14.9494C11.7743 14.2495 11.642 13.5581 11.4265 12.8907C11.2364 12.2132 10.9872 11.5537 10.6819 10.9196C10.4076 10.2796 10.0545 9.67631 9.6307 9.12379C9.23029 8.55413 8.79124 8.01261 8.31662 7.50315C7.80715 7.02853 7.26564 6.58948 6.69598 6.18907C6.14345 5.7653 5.54016 5.41217 4.90012 5.13786C4.2723 4.81835 3.61132 4.56865 2.92906 4.39324C2.26268 4.17374 1.57073 4.04124 0.870396 3.99902C0.870396 4.39324 0.826595 4.78745 0.826595 5.18166C0.809678 5.99035 0.883136 6.79837 1.0456 7.59071C1.12721 7.99002 1.22955 8.38477 1.35221 8.77336C1.44419 9.16552 1.57629 9.54712 1.74642 9.91224C1.88859 10.2851 2.0494 10.6506 2.22824 11.0073L2.84146 12.0585L3.58608 13.0221L4.37451 13.8981L5.25054 14.7304L6.21417 15.4312C6.5646 15.694 6.91498 15.8692 7.26542 16.0882L8.36044 16.6138L9.45545 17.008L10.6381 17.3147L11.8207 17.4898L13.0034 17.3147L14.186 17.008L15.3248 16.6138L16.4199 16.0882L17.4273 15.4312L18.3909 14.7304C18.7038 14.4758 18.9967 14.1975 19.267 13.8981C19.5664 13.6278 19.8446 13.335 20.0992 13.0221L20.8 12.0585C21.019 11.7081 21.238 11.3576 21.4132 11.0073L21.9389 9.91224L22.3331 8.77336C22.4415 8.38411 22.5293 7.98931 22.5959 7.59071C22.6757 7.19998 22.7342 6.80518 22.7711 6.40807C22.8302 6.00211 22.8448 5.59085 22.8149 5.18166C22.8221 4.78694 22.8075 4.39212 22.7711 3.99902Z" fill="url(#paint0_linear_730_5876)"/>
<path d="M14.5795 3.25446C14.5883 3.44534 14.5737 3.6366 14.5357 3.82388C14.4974 4.01929 14.4386 4.21014 14.3605 4.3933L14.0977 4.87511L13.7472 5.31312L13.3092 5.66354L12.7836 5.92634L12.258 6.10153H11.1191L10.5497 5.92634L10.0679 5.66354L9.62992 5.31312L9.23573 4.87511L8.97291 4.3933L8.79766 3.82388C8.79766 3.64868 8.75391 3.47347 8.75391 3.25446C8.75391 3.03546 8.79766 2.90405 8.79766 2.72884C8.79766 2.55364 8.9291 2.33463 8.97291 2.15942L9.23573 1.67761L9.62992 1.2396C9.75558 1.09946 9.90362 0.981055 10.0679 0.889188L10.5497 0.626377L11.1191 0.451172H12.258L12.7836 0.626377L13.3092 0.889188L13.7472 1.2396L14.0977 1.67761L14.3605 2.15942C14.4445 2.34037 14.5035 2.53194 14.5357 2.72884C14.5718 2.90158 14.5865 3.07812 14.5795 3.25446Z" fill="#EB662B"/>
</g>
</g>
<defs>
<linearGradient id="paint0_linear_730_5876" x1="4.40015" y1="6.02256" x2="13.6366" y2="19.8124" gradientUnits="userSpaceOnUse">
<stop stop-color="#EB662B"/>
<stop offset="1" stop-color="#F28555"/>
</linearGradient>
<clipPath id="clip0_730_5876">
<rect width="94" height="17.5906" fill="white"/>
</clipPath>
<clipPath id="clip1_730_5876">
<rect width="91.8012" height="17.5906" fill="white" transform="translate(0.824219 0.205078)"/>
</clipPath>
</defs>
</svg>
