<svg width="1800" height="41" viewBox="0 0 1800 41" fill="none" xmlns="http://www.w3.org/2000/svg">
<g clip-path="url(#clip0_2103_3041)">
<g clip-path="url(#clip1_2103_3041)" filter="url(#filter0_d_2103_3041)">
<path d="M0 26.2952C0 26.2952 46.3491 19.9769 88.8889 19.5361C132.063 19.0953 168.889 19.5361 221.587 21.7402C293.333 24.6789 431.746 36.5809 505.397 30.1156C579.048 23.6503 582.222 23.3565 619.683 19.2422C661.587 14.5402 746.667 5.13616 852.063 5.57698C964.444 6.01779 1168.25 29.9687 1252.06 28.7932C1260.95 28.6462 1293.97 27.6177 1318.73 25.8544C1342.86 24.0912 1378.41 20.2708 1426.67 18.9483C1446.98 18.3606 1479.37 17.332 1516.83 17.6259C1526.35 17.7728 1556.83 18.2136 1593.02 19.9769C1629.21 21.7402 1662.86 24.532 1693.33 25.4136C1758.73 27.0299 1800 24.6789 1800 24.6789V40.5482H0V26.2952ZM144.127 23.9442C148.572 25.4136 156.825 24.532 171.429 24.532C186.032 24.532 210.159 26.2952 208.254 26.1483C206.349 26.0014 188.571 23.9442 170.159 23.3565C151.111 22.6218 140.318 22.4748 144.127 23.9442ZM260.952 27.9115C260.952 27.9115 276.19 28.2054 296.508 29.234C316.825 30.4095 361.905 33.3483 392.381 34.3768C444.444 35.9931 492.698 34.3768 488.254 34.2299C483.175 34.0829 427.302 35.1115 376.508 32.6136C355.556 31.585 317.46 29.3809 297.778 28.6462C276.825 27.7646 260.952 27.9115 260.952 27.9115ZM624.127 28.0585C613.333 29.0871 708.571 21.1524 741.587 19.0953C754.921 18.2136 780.952 16.7443 805.079 16.1565C829.841 15.5688 861.587 15.5688 860.952 15.4218C860.952 15.1279 824.127 14.2463 789.841 15.4218C755.556 16.5973 756.825 17.0381 741.587 17.7728C717.46 18.9483 634.921 27.0299 624.127 28.0585ZM535.873 30.4095C534.603 30.4095 540.952 30.9972 566.349 28.7932C591.746 26.5891 608.889 23.6503 610.159 23.3565C611.429 23.2095 587.937 26.0014 568.254 27.7646C549.206 29.5279 536.508 30.4095 535.873 30.4095ZM3.17456 31.7319C3.80945 31.585 15.238 30.1156 33.6506 28.0585C52.0634 26.0014 77.4603 23.9442 76.1904 24.0912C74.9207 24.0912 53.9683 24.9728 29.2064 27.7646C4.44446 30.5564 2.53967 31.8789 3.17456 31.7319ZM1601.27 23.5034C1600.63 23.7973 1613.33 23.7973 1629.84 25.2667C1646.35 26.736 1664.13 27.6177 1679.37 28.2054C1704.76 29.3809 1753.65 28.0585 1751.11 27.9115C1749.21 27.7646 1699.05 28.3524 1671.75 26.883C1657.78 26.1483 1656.51 26.1483 1635.56 24.532C1614.6 22.9157 1601.9 23.0626 1601.27 23.5034ZM1336.51 27.0299C1333.97 27.1769 1314.29 29.3809 1283.17 30.8503C1252.06 32.4666 1226.67 31.585 1226.67 32.0258C1226.67 32.4666 1233.02 33.3483 1266.03 32.4666C1299.05 31.585 1339.05 26.883 1336.51 27.0299ZM1345.4 30.7034C1344.13 30.5564 1323.81 32.6136 1309.21 33.2013C1294.6 33.6421 1297.14 33.936 1297.14 34.0829C1297.14 34.2299 1304.13 34.3768 1314.29 33.7891C1325.08 33.0544 1346.67 30.8503 1345.4 30.7034ZM1205.71 34.0829C1205.08 33.7891 1183.49 32.9074 1170.16 31.4381C1156.83 29.9687 1158.73 30.5564 1158.1 30.7034C1157.46 30.8503 1163.17 31.8789 1173.33 32.6136C1183.49 33.4952 1206.35 34.3768 1205.71 34.0829ZM1384.76 24.2381C1385.4 23.7973 1382.86 23.5034 1372.7 24.532C1362.54 25.5605 1356.19 26.4422 1358.73 26.2952C1361.27 26.1483 1364.44 25.7075 1374.6 25.1197C1385.4 24.532 1384.13 24.6789 1384.76 24.2381ZM1580.95 22.3279C1582.22 22.3279 1567.62 21.1524 1560 21.0055C1552.38 20.8585 1547.3 20.8585 1547.3 21.2993C1547.3 21.7402 1547.94 22.034 1557.46 21.8871C1567.62 21.7402 1579.68 22.3279 1580.95 22.3279ZM833.651 9.5443C834.286 9.39736 848.889 9.98512 881.27 9.98512C913.016 9.98512 967.619 13.5116 990.476 15.1279C1013.33 16.7443 926.984 9.39736 885.714 9.10349C844.444 8.80961 833.016 9.69124 833.651 9.5443Z" fill="white"/>
<path d="M88.2541 14.0994C88.8891 14.2463 117.46 13.6585 133.968 14.0994C180.317 15.1279 241.905 18.8014 239.365 18.3606C236.825 17.9197 152.381 13.8055 131.429 13.5116C100.317 12.9238 87.6192 14.0994 88.2541 14.0994Z" fill="white"/>
<path d="M356.19 26.1483C357.46 26.2952 384.762 27.6176 416.508 27.9115C448.254 28.2054 497.143 27.0299 494.603 27.1768C492.698 27.3238 457.143 29.8217 410.159 28.9401C363.175 28.0585 354.921 26.0013 356.19 26.1483Z" fill="white"/>
<path d="M501.587 20.8585C502.222 21.0055 488.889 22.3279 481.27 22.4749C473.651 22.6218 468.571 22.4749 468.571 22.034C468.571 21.5932 469.206 21.2994 478.73 21.4463C489.524 21.5932 500.952 20.7116 501.587 20.8585Z" fill="white"/>
<path d="M523.81 24.9728C523.81 25.1197 551.746 23.2095 563.81 21.7401C575.873 20.4177 603.175 17.1851 602.54 17.1851C601.905 17.0381 575.873 19.5361 562.54 21.0055C549.206 22.4748 523.81 24.8258 523.81 24.9728Z" fill="white"/>
<path d="M819.048 1.3158C819.682 1.46274 848.254 0.874986 864.762 1.3158C911.111 2.34437 972.698 6.01782 970.159 5.577C967.619 5.13619 883.175 1.02192 862.222 0.728048C831.111 0.140296 818.413 1.16886 819.048 1.3158Z" fill="white"/>
<path d="M1533.97 12.1892C1533.97 12.1892 1526.35 12.63 1515.56 12.3361C1504.76 12.0422 1478.73 11.0136 1463.49 11.3075C1436.83 11.8953 1416.51 15.2749 1419.05 15.1279C1421.59 15.1279 1446.35 11.8953 1473.65 12.3361C1485.08 12.483 1506.03 13.0708 1516.19 12.9238C1526.35 12.7769 1533.97 12.1892 1533.97 12.1892Z" fill="white"/>
<path d="M1320.64 22.034C1319.37 21.8871 1307.94 23.2095 1293.33 23.6503C1278.73 23.9442 1280 24.0911 1280 24.385C1280 24.532 1291.43 24.9728 1301.59 24.385C1311.75 23.6503 1321.9 22.181 1320.64 22.034Z" fill="white"/>
<path d="M1700.95 21.1524C1700.95 21.2993 1673.65 21.1524 1658.41 20.4177C1643.17 19.683 1626.67 17.6259 1626.67 17.479C1626.67 17.332 1643.81 18.6545 1659.05 19.5361C1673.65 20.4177 1700.32 21.0055 1700.95 21.1524Z" fill="white"/>
</g>
</g>
<defs>
<filter id="filter0_d_2103_3041" x="-4" y="0.130005" width="1808" height="48" filterUnits="userSpaceOnUse" color-interpolation-filters="sRGB">
<feFlood flood-opacity="0" result="BackgroundImageFix"/>
<feColorMatrix in="SourceAlpha" type="matrix" values="0 0 0 0 0 0 0 0 0 0 0 0 0 0 0 0 0 0 127 0" result="hardAlpha"/>
<feOffset dy="4"/>
<feGaussianBlur stdDeviation="2"/>
<feComposite in2="hardAlpha" operator="out"/>
<feColorMatrix type="matrix" values="0 0 0 0 0 0 0 0 0 0 0 0 0 0 0 0 0 0 0.25 0"/>
<feBlend mode="normal" in2="BackgroundImageFix" result="effect1_dropShadow_2103_3041"/>
<feBlend mode="normal" in="SourceGraphic" in2="effect1_dropShadow_2103_3041" result="shape"/>
</filter>
<clipPath id="clip0_2103_3041">
<rect width="1800" height="40" fill="white" transform="translate(0 0.130005)"/>
</clipPath>
<clipPath id="clip1_2103_3041">
<rect width="1800" height="40" fill="white" transform="translate(0 0.130005)"/>
</clipPath>
</defs>
</svg>
