<svg width="36" height="607" viewBox="0 0 36 607" fill="none" xmlns="http://www.w3.org/2000/svg">
<path d="M14.1945 0.379883C14.1945 0.379883 20.5774 15.9874 21.0227 30.3122C21.4681 44.8508 21.0227 57.2513 18.7962 74.9969C15.8273 99.1566 3.80376 145.765 10.3351 170.567C16.8664 195.368 17.1632 196.437 21.3196 209.051C26.0696 223.162 35.5698 251.812 35.1244 287.303C34.6791 325.145 10.4835 393.776 11.671 421.998C11.8195 424.991 12.8585 436.11 14.6398 444.448C16.4211 452.572 20.2805 464.545 21.6165 480.794C22.2102 487.636 23.2493 498.54 22.9524 511.154C22.804 514.361 22.3587 524.624 20.5774 536.81C18.7962 548.997 15.9757 560.329 15.0851 570.591C13.4523 592.612 15.8273 606.51 15.8273 606.51H-0.204102L-0.204094 0.379883L14.1945 0.379883ZM16.5695 48.9131C15.0851 50.4097 15.9757 53.1891 15.9757 58.1065C15.9757 63.024 14.1945 71.1485 14.3429 70.5071C14.4914 69.8657 16.5695 63.8792 17.1632 57.6789C17.9054 51.2649 18.0539 47.6302 16.5695 48.9131ZM12.5617 88.2527C12.5617 88.2527 12.2648 93.384 11.2257 100.226C10.0382 107.067 7.06943 122.247 6.03035 132.51C4.39752 150.041 6.03035 166.291 6.17879 164.794C6.32723 163.083 5.28815 144.269 7.81162 127.165C8.85069 120.11 11.0773 107.281 11.8195 100.653C12.7101 93.5977 12.5617 88.2527 12.5617 88.2527ZM12.4132 210.547C11.3742 206.913 19.3899 238.983 21.468 250.101C22.3587 254.591 23.8431 263.356 24.4368 271.482C25.0306 279.82 25.0306 290.51 25.179 290.296C25.4759 290.296 26.3665 277.896 25.179 266.35C23.9915 254.805 23.5462 255.232 22.804 250.101C21.6165 241.976 13.4523 214.182 12.4132 210.547ZM10.0382 180.829C10.0382 180.402 9.44445 182.539 11.671 191.092C13.8976 199.644 16.8664 205.417 17.1632 205.844C17.3117 206.272 14.4914 198.361 12.7101 191.733C10.9289 185.319 10.0382 181.043 10.0382 180.829ZM8.70226 1.44886C8.85069 1.6627 10.3351 5.51113 12.4132 11.7114C14.4914 17.9117 16.5695 26.4638 16.4211 26.0362C16.4211 25.6085 15.5304 18.5531 12.7101 10.2148C9.88977 1.87653 8.55382 1.23509 8.70226 1.44886ZM17.0148 539.59C16.7179 539.376 16.7179 543.652 15.2335 549.21C13.7492 554.77 12.8585 560.756 12.2648 565.887C11.0773 574.44 12.4132 590.902 12.5617 590.047C12.7101 589.406 12.1164 572.515 13.6007 563.322C14.3429 558.619 14.3429 558.19 15.9757 551.135C17.6086 544.08 17.4601 539.803 17.0148 539.59ZM13.4523 450.434C13.3039 449.579 11.0773 442.951 9.59289 432.475C7.96006 421.998 8.85069 413.446 8.40538 413.446C7.96006 413.446 7.06942 415.584 7.96005 426.702C8.85069 437.82 13.6007 451.289 13.4523 450.434ZM9.74133 453.428C9.88976 452.999 7.81161 446.158 7.21786 441.24C6.77255 436.323 6.47566 437.178 6.32722 437.178C6.17878 437.178 6.03035 439.53 6.6241 442.951C7.3663 446.586 9.59289 453.855 9.74133 453.428ZM6.32722 406.391C6.6241 406.177 7.51474 398.907 8.99913 394.418C10.4835 389.928 9.88976 390.569 9.74133 390.356C9.59289 390.142 8.55381 392.066 7.81161 395.487C6.92098 398.907 6.03035 406.604 6.32722 406.391ZM16.2726 466.683C16.7179 466.897 17.0148 466.041 15.9757 462.621C14.9367 459.2 14.046 457.061 14.1945 457.917C14.3429 458.773 14.7882 459.842 15.382 463.262C15.9757 466.897 15.8273 466.47 16.2726 466.683ZM18.2023 532.748C18.2023 533.175 19.3899 528.259 19.5384 525.693C19.6868 523.127 19.6868 521.416 19.2415 521.416C18.7962 521.416 18.4993 521.63 18.6477 524.837C18.7962 528.259 18.2023 532.321 18.2023 532.748ZM31.1166 281.103C31.2651 281.316 30.6712 286.234 30.6712 297.138C30.6712 307.828 27.1087 326.215 25.4759 333.912C23.8431 341.609 31.2651 312.532 31.5619 298.634C31.8588 284.737 30.9682 280.889 31.1166 281.103Z" fill="#FEF7F4"/>
</svg>
