<svg width="60" height="60" viewBox="0 0 60 60" fill="none" xmlns="http://www.w3.org/2000/svg">
<g clip-path="url(#clip0_949_2596)">
<path fill-rule="evenodd" clip-rule="evenodd" d="M30.06 3.88672C21.0805 3.88672 13.8018 11.1654 13.8018 20.1449C13.8106 25.8227 16.7758 31.0428 21.5495 33.973C22.3148 34.4433 23.119 35.4688 23.2953 36.3492L23.7368 38.5591C23.9219 39.4833 24.7411 40.1549 25.6828 40.1549H34.4372C35.3789 40.1549 36.198 39.4833 36.3831 38.5591L36.8246 36.3492C37.0009 35.4688 37.8051 34.4433 38.5705 33.9743C43.3441 31.0428 46.3093 25.8227 46.3181 20.1449C46.3181 11.1654 39.0395 3.88672 30.06 3.88672Z" fill="#FDF0EA"/>
<path fill-rule="evenodd" clip-rule="evenodd" d="M23.6465 47.9463L36.4629 48.0113L35.3711 54.5621C35.1935 55.6264 34.2643 56.413 33.1862 56.413H26.9331C25.8551 56.413 24.9258 55.6264 24.7482 54.5621L23.6465 47.9463Z" fill="white"/>
<path fill-rule="evenodd" clip-rule="evenodd" d="M23.1814 45.1577H36.9382C37.2696 45.1577 37.5886 45.289 37.8224 45.5241C38.0575 45.758 38.1889 46.0769 38.1889 46.4083V47.6589C38.1889 48.3455 37.6248 48.9095 36.9382 48.9095H23.1814C22.8499 48.9095 22.531 48.7782 22.2972 48.5431C22.062 48.3092 21.9307 47.9903 21.9307 47.6589V46.4083C21.9307 45.7217 22.4948 45.1577 23.1814 45.1577Z" fill="#FDF0EA"/>
<path fill-rule="evenodd" clip-rule="evenodd" d="M30.0604 3.88672C26.9526 3.88672 24.4326 11.1654 24.4326 20.1449C24.4351 25.8227 25.4618 31.0428 27.1151 33.973C27.379 34.4433 27.6579 35.4688 27.7192 36.3492L27.8718 38.5591C27.9356 39.4833 28.2194 40.1549 28.5446 40.1549H31.5761C31.9013 40.1549 32.1852 39.4833 32.249 38.5591L32.4015 36.3492C32.4628 35.4688 32.7417 34.4433 33.0056 33.9743C34.6589 31.0428 35.6857 25.8227 35.6882 20.1449C35.6882 11.1654 33.1682 3.88672 30.0604 3.88672Z" fill="white"/>
<path fill-rule="evenodd" clip-rule="evenodd" d="M11.4736 38.6093C10.7932 38.0127 9.91528 37.6538 8.95605 37.6538C6.79747 37.6538 5.04785 39.4735 5.04785 41.7183C5.04785 43.9632 6.79747 45.7829 8.95605 45.7829H14.4275C16.1546 45.7829 17.5541 44.3271 17.5541 42.5312C17.5541 40.7353 16.1546 39.2796 14.4275 39.2796C13.7597 39.2796 13.1394 39.4972 12.6316 39.8687L11.4736 38.6093Z" fill="#FDF0EA"/>
<path fill-rule="evenodd" clip-rule="evenodd" d="M51.8243 30.1314C52.3008 29.7137 52.9161 29.4624 53.5877 29.4624C55.0985 29.4624 56.3228 30.7368 56.3228 32.3075C56.3228 33.8783 55.0985 35.1527 53.5877 35.1527H49.757C48.5489 35.1527 47.5684 34.1334 47.5684 32.8766C47.5684 31.6197 48.5489 30.6004 49.757 30.6004C50.2248 30.6004 50.6587 30.753 51.0139 31.0131L51.8243 30.1314Z" fill="white"/>
<path fill-rule="evenodd" clip-rule="evenodd" d="M22.7419 50.1212L23.5161 54.7685C23.7937 56.4319 25.2469 57.6637 26.934 57.6637H33.1871C34.8742 57.6637 36.3275 56.4319 36.6051 54.7685L37.3792 50.12C38.5448 49.9099 39.4403 48.8806 39.4403 47.6587V46.4081C39.4403 45.7453 39.1764 45.1087 38.7074 44.6397C38.2384 44.1707 37.6018 43.9069 36.939 43.9069H36.3137V40.8028C36.9665 40.3376 37.4443 39.6335 37.6094 38.8043L38.0521 36.5945C38.1684 36.0129 38.7199 35.3501 39.2252 35.0399C44.3665 31.8834 47.5606 26.2618 47.5693 20.1475V20.145C47.5693 10.4751 39.7304 2.63623 30.0606 2.63623C20.3907 2.63623 12.5518 10.4751 12.5518 20.145V20.1462C12.5531 20.714 12.5806 21.2756 12.6356 21.8333C12.7032 22.5199 13.3147 23.0227 14.0026 22.9551C14.6892 22.8876 15.1919 22.2761 15.1244 21.5882C15.0781 21.1117 15.0543 20.6302 15.0531 20.1437C15.0531 13.2553 19.6941 7.45239 26.0198 5.68776C24.344 8.69926 23.1821 14.0419 23.1821 20.145V20.1462C23.1859 26.0792 24.299 31.5257 26.0248 34.5884C26.2312 34.9524 26.4238 35.7528 26.4713 36.4356L26.6239 38.6455C26.6301 38.7343 26.6389 38.8206 26.6476 38.9044H25.6834C25.3345 38.9044 25.0318 38.6567 24.9643 38.3141L24.5228 36.1042C24.2864 34.9249 23.2297 33.5379 22.2042 32.9076C20.1344 31.637 18.4323 29.8986 17.2092 27.8701C16.8527 27.2785 16.0823 27.0885 15.492 27.4449C14.9005 27.8013 14.7104 28.5704 15.0668 29.162C16.4938 31.5282 18.4798 33.5567 20.896 35.0399C21.4012 35.3501 21.9528 36.0129 22.0691 36.5945L22.5118 38.8043C22.6769 39.6335 23.1546 40.3376 23.8075 40.8028V43.9069H23.1821C21.8102 43.9069 20.6809 45.0362 20.6809 46.4081V47.6587C20.6809 48.3216 20.9448 48.9581 21.4138 49.4271C21.7777 49.791 22.2417 50.0312 22.7419 50.1212ZM34.838 50.16H34.3965C33.7062 50.16 33.1459 49.5997 33.1459 48.9094C33.1459 48.219 33.7062 47.6587 34.3965 47.6587H36.939V46.5082C36.859 46.4881 36.7452 46.4081 36.939 46.4081H23.1821V47.5587C23.2622 47.5787 23.376 47.6587 23.1821 47.6587H30.3782C31.0673 47.6587 31.6289 48.219 31.6289 48.9094C31.6289 49.5997 31.0673 50.16 30.3782 50.16H25.2832L25.9835 54.3571C26.0598 54.8198 26.465 55.1625 26.934 55.1625H33.1871C33.6561 55.1625 34.0613 54.8198 34.1376 54.3571L34.838 50.16ZM28.81 43.9069V41.4056H26.3087V43.9069H28.81ZM33.8125 43.9069V41.4056H31.3112V43.9069H33.8125ZM30.0606 5.13748C30.387 5.13748 30.6784 5.33508 30.9723 5.61772C31.44 6.0667 31.864 6.73202 32.2529 7.55744C33.5936 10.3951 34.4378 14.9786 34.4378 20.145C34.4353 25.5677 33.4948 30.5602 31.9165 33.3591C31.5926 33.9356 31.2287 35.1837 31.1549 36.263L31.001 38.4729C30.9923 38.6105 30.9635 38.7668 30.9323 38.9044H29.1889C29.1576 38.7668 29.1289 38.6105 29.1201 38.4729L28.9663 36.263C28.8925 35.1837 28.5286 33.9356 28.2047 33.3591C26.6264 30.5602 25.6859 25.5677 25.6834 20.145C25.6834 14.9786 26.5276 10.3951 27.8682 7.55744C28.2572 6.73202 28.6811 6.0667 29.1489 5.61772C29.4428 5.33508 29.7342 5.13748 30.0606 5.13748ZM34.1014 5.68776C35.7772 8.69926 36.939 14.0419 36.939 20.145V20.1462C36.9365 26.0792 35.8222 31.5257 34.0963 34.5884C33.89 34.9524 33.6974 35.7528 33.6499 36.4356L33.4973 38.6455C33.491 38.7343 33.4823 38.8206 33.4735 38.9044H34.4378C34.7867 38.9044 35.0893 38.6567 35.1569 38.3141L35.5984 36.1042C35.8347 34.9249 36.8915 33.5379 37.9158 32.9076C42.323 30.2025 45.0593 25.3851 45.0681 20.1437C45.0681 13.2565 40.427 7.45239 34.1014 5.68776Z" fill="#EB662B"/>
<path fill-rule="evenodd" clip-rule="evenodd" d="M12.3949 37.764C12.3636 37.7302 12.3323 37.6989 12.2986 37.6689C11.3956 36.8785 10.2288 36.4033 8.9557 36.4033C6.12054 36.4033 3.79688 38.7695 3.79688 41.7184C3.79688 44.6674 6.12054 47.0336 8.9557 47.0336H14.4271C16.8308 47.0336 18.8043 45.0313 18.8043 42.5313C18.8043 40.0313 16.8308 38.0291 14.4271 38.0291C13.8894 38.0291 13.3741 38.1291 12.8976 38.3117L12.3949 37.764ZM10.6027 39.5098L11.7108 40.7154C12.141 41.1844 12.8551 41.2544 13.3691 40.8793C13.6693 40.6604 14.0332 40.5303 14.4271 40.5303C15.4777 40.5303 16.3031 41.4395 16.3031 42.5313C16.3031 43.6231 15.4777 44.5323 14.4271 44.5323H8.9557C7.47371 44.5323 6.29813 43.2592 6.29813 41.7184C6.29813 40.1777 7.47371 38.9045 8.9557 38.9045C9.57726 38.9045 10.1488 39.1309 10.599 39.5073L10.6027 39.5098Z" fill="#EB662B"/>
<path fill-rule="evenodd" clip-rule="evenodd" d="M51.0007 29.1907L50.7168 29.4883C50.4129 29.3983 50.0903 29.3495 49.7576 29.3495C47.8717 29.3495 46.3184 30.9153 46.3184 32.8763C46.3184 34.8373 47.8717 36.403 49.7576 36.403H53.5883C55.7756 36.403 57.574 34.5821 57.574 32.3073C57.574 30.0324 55.7756 28.2114 53.5883 28.2114C52.6028 28.2114 51.6986 28.5779 51.0007 29.1907ZM52.6966 31.0316C52.9429 30.8328 53.2518 30.7127 53.5883 30.7127C54.4212 30.7127 55.0728 31.4393 55.0728 32.3073C55.0728 33.1752 54.4212 33.9018 53.5883 33.9018H49.7576C49.2261 33.9018 48.8196 33.4291 48.8196 32.8763C48.8196 32.3235 49.2261 31.8508 49.7576 31.8508C49.9514 31.8508 50.1303 31.9145 50.2766 32.0221C50.7906 32.3985 51.5047 32.3273 51.9362 31.8595L52.6928 31.0341L52.6966 31.0316Z" fill="#EB662B"/>
<path d="M14.595 26.3587C15.286 26.3587 15.8461 25.7985 15.8461 25.1075C15.8461 24.4165 15.286 23.8564 14.595 23.8564C13.904 23.8564 13.3438 24.4165 13.3438 25.1075C13.3438 25.7985 13.904 26.3587 14.595 26.3587Z" fill="#EB662B"/>
</g>
<defs>
<clipPath id="clip0_949_2596">
<rect width="60" height="60" fill="white"/>
</clipPath>
</defs>
</svg>
