<svg width="60" height="62" viewBox="0 0 60 62" fill="none" xmlns="http://www.w3.org/2000/svg">
<g clip-path="url(#clip0_2103_5320)">
<path fill-rule="evenodd" clip-rule="evenodd" d="M26.5992 49.2703C16.109 47.4944 8.10742 38.3536 8.10742 27.3593C8.10742 15.0944 18.0649 5.13696 30.3298 5.13696C42.5947 5.13696 52.5521 15.0944 52.5521 27.3593C52.5521 38.3536 44.5506 47.4944 34.0604 49.2703L30.3298 57.6632L26.5992 49.2703ZM30.3298 19.279C34.7895 19.279 38.4113 22.8996 38.4113 27.3593C38.4113 31.819 34.7895 35.4409 30.3298 35.4409C25.8701 35.4409 22.2483 31.819 22.2483 27.3593C22.2483 22.8996 25.8701 19.279 30.3298 19.279Z" fill="#FDF0EA"/>
<path fill-rule="evenodd" clip-rule="evenodd" d="M35.8828 23.2317C36.6898 24.3533 37.1661 25.7299 37.1661 27.2168C37.1661 30.9881 34.1033 34.0509 30.3321 34.0509C26.5608 34.0509 23.498 30.9881 23.498 27.2168C23.498 23.4456 26.5608 20.3828 30.3321 20.3828C31.439 20.3828 32.4849 20.6467 33.4095 21.1149C34.0254 21.4265 34.7795 21.1796 35.0912 20.5629C35.4028 19.947 35.1559 19.1936 34.5392 18.882C33.275 18.2418 31.8454 17.8809 30.3321 17.8809C25.179 17.8809 20.9961 22.0638 20.9961 27.2168C20.9961 32.3699 25.179 36.5528 30.3321 36.5528C35.4851 36.5528 39.668 32.3699 39.668 27.2168C39.668 25.1846 39.0176 23.303 37.9136 21.7698C37.5101 21.2089 36.7273 21.0818 36.1672 21.4853C35.6064 21.8888 35.4793 22.6709 35.8828 23.2317Z" fill="#EB662B"/>
<path fill-rule="evenodd" clip-rule="evenodd" d="M12.3678 38.2314C10.3 34.9822 9.10248 31.1272 9.10248 26.9956C9.10248 15.4266 18.4966 6.03241 30.0656 6.03241C41.6346 6.03241 51.0288 15.4266 51.0288 26.9956C51.0288 37.3671 43.4824 45.9898 33.5854 47.6639C33.1735 47.7345 32.8221 48.0052 32.6525 48.3888L30.0656 54.2087L27.4788 48.3888C27.3092 48.0052 26.9578 47.7345 26.5458 47.6639C23.1997 47.0984 20.1243 45.7374 17.5173 43.7847C16.966 43.3707 16.1804 43.4838 15.7665 44.0351C15.3545 44.5884 15.4656 45.3719 16.0189 45.7859C18.7632 47.8416 21.974 49.3117 25.4635 50.0063C25.4615 50.0063 28.9227 57.7931 28.9227 57.7931C29.1246 58.2454 29.5709 58.5362 30.0656 58.5362C30.5604 58.5362 31.0067 58.2454 31.2086 57.7931L34.6698 50.0063C45.4169 47.8658 53.5287 38.3707 53.5287 26.9956C53.5287 14.0453 43.0159 3.53247 30.0656 3.53247C17.1154 3.53247 6.60254 14.0453 6.60254 26.9956C6.60254 31.622 7.94537 35.9374 10.2596 39.5743C10.6311 40.1559 11.4046 40.3275 11.9862 39.958C12.5677 39.5864 12.7394 38.813 12.3678 38.2314Z" fill="#EB662B"/>
<path d="M13.7589 43.327C14.4496 43.327 15.0096 42.767 15.0096 42.0763C15.0096 41.3856 14.4496 40.8257 13.7589 40.8257C13.0682 40.8257 12.5083 41.3856 12.5083 42.0763C12.5083 42.767 13.0682 43.327 13.7589 43.327Z" fill="#EB662B"/>
</g>
<defs>
<clipPath id="clip0_2103_5320">
<rect width="60" height="61" fill="white" transform="translate(0 0.0800781)"/>
</clipPath>
</defs>
</svg>
